<svg viewBox="0 0 1080 1666" xmlns="http://www.w3.org/2000/svg">
<defs><style>.disp{font-family:Oswald,"Arial Narrow",Helvetica,Arial,sans-serif;}.body{font-family:Barlow,"Helvetica Neue",Arial,sans-serif;}</style><radialGradient id="glow" cx="50%" cy="0%" r="80%"><stop offset="0%" stop-color="#F2F0E4" stop-opacity="0.07"/><stop offset="55%" stop-color="#F2F0E4" stop-opacity="0"/></radialGradient></defs>
<rect x="0" y="0" width="1080" height="1666" fill="#15431C"/>
<rect x="0" y="88" width="1080" height="88" fill="#0E3014"/>
<rect x="0" y="264" width="1080" height="88" fill="#0E3014"/>
<rect x="0" y="440" width="1080" height="88" fill="#0E3014"/>
<rect x="0" y="616" width="1080" height="88" fill="#0E3014"/>
<rect x="0" y="792" width="1080" height="88" fill="#0E3014"/>
<rect x="0" y="968" width="1080" height="88" fill="#0E3014"/>
<rect x="0" y="1144" width="1080" height="88" fill="#0E3014"/>
<rect x="0" y="1320" width="1080" height="88" fill="#0E3014"/>
<rect x="0" y="1496" width="1080" height="88" fill="#0E3014"/>
<rect x="0" y="0" width="1080" height="1666" fill="url(#glow)"/>
<text class="disp" x="80" y="60" fill="rgba(242,240,228,0.84)" font-size="13" font-weight="500" letter-spacing="4">WORLD CUP 2026&#160;&#160;&#183;&#160;&#160;THE THIRD-PLACE RACE</text>
<text class="disp" x="80" y="134" fill="rgba(0,0,0,0.30)" font-size="58" font-weight="700" letter-spacing="1">THE RACE FOR THE LAST</text>
<text class="disp" x="80" y="132" fill="#F2F0E4" font-size="58" font-weight="700" letter-spacing="1">THE RACE FOR THE LAST</text>
<text class="disp" x="80" y="198" fill="rgba(0,0,0,0.30)" font-size="58" font-weight="700" letter-spacing="1">THIRD-PLACE TICKET</text>
<text class="disp" x="80" y="196" fill="#F2F0E4" font-size="58" font-weight="700" letter-spacing="1">THIRD-PLACE TICKET</text>
<text class="body" x="80" y="250" fill="rgba(242,240,228,0.84)" font-size="20">Eight of the twelve third-placed teams advance. Five are already in; the rest is a</text>
<text class="body" x="80" y="280" fill="rgba(242,240,228,0.84)" font-size="20">goal-difference scrap between the sides below, with six games left to play.</text>
<text class="disp" x="80" y="360" fill="#F2F0E4" font-size="16" font-weight="600" letter-spacing="2">THE CUT-OFF LINE, BOUNDED</text>
<line x1="334" y1="355" x2="1000" y2="355" stroke="rgba(242,240,228,0.22)" stroke-width="2"/>
<rect x="80" y="386" width="440" height="196" rx="8" fill="#0E3014" stroke="rgba(242,240,228,0.22)" stroke-width="1"/>
<rect x="80" y="386" width="6" height="196" fill="#5FD083"/>
<text class="disp" x="110" y="426" fill="#5FD083" font-size="18" font-weight="600" letter-spacing="1.5">LOWEST POSSIBLE</text>
<text class="body" x="110" y="448" fill="rgba(242,240,228,0.84)" font-size="13">the easiest the bar can get</text>
<text class="disp" x="122" y="482" fill="rgba(242,240,228,0.84)" font-size="12" font-weight="600" letter-spacing="2">PTS</text>
<text class="disp" x="122" y="534" fill="#F2F0E4" font-size="50" font-weight="700">3</text>
<text class="disp" x="258" y="482" fill="rgba(242,240,228,0.84)" font-size="12" font-weight="600" letter-spacing="2">GD</text>
<text class="disp" x="258" y="534" fill="#F2F0E4" font-size="50" font-weight="700">−3</text>
<text class="disp" x="402" y="482" fill="rgba(242,240,228,0.84)" font-size="12" font-weight="600" letter-spacing="2">GF</text>
<text class="disp" x="402" y="534" fill="#F2F0E4" font-size="50" font-weight="700">1</text>
<text class="body" x="110" y="568" fill="rgba(242,240,228,0.84)" font-size="13">set by <tspan fill="#E8C34A" font-weight="700">Scotland</tspan> (Group C)</text>
<rect x="560" y="386" width="440" height="196" rx="8" fill="#0E3014" stroke="rgba(242,240,228,0.22)" stroke-width="1"/>
<rect x="560" y="386" width="6" height="196" fill="#FF6B57"/>
<text class="disp" x="590" y="426" fill="#FF6B57" font-size="18" font-weight="600" letter-spacing="1.5">HIGHEST POSSIBLE</text>
<text class="body" x="590" y="448" fill="rgba(242,240,228,0.84)" font-size="13">the hardest the bar can get</text>
<text class="disp" x="602" y="482" fill="rgba(242,240,228,0.84)" font-size="12" font-weight="600" letter-spacing="2">PTS</text>
<text class="disp" x="602" y="534" fill="#F2F0E4" font-size="50" font-weight="700">3</text>
<text class="disp" x="738" y="482" fill="rgba(242,240,228,0.84)" font-size="12" font-weight="600" letter-spacing="2">GD</text>
<text class="disp" x="738" y="534" fill="#F2F0E4" font-size="50" font-weight="700">+2</text>
<text class="disp" x="882" y="482" fill="rgba(242,240,228,0.84)" font-size="12" font-weight="600" letter-spacing="2">GF</text>
<text class="disp" x="882" y="534" fill="#F2F0E4" font-size="50" font-weight="700">8</text>
<text class="body" x="590" y="568" fill="rgba(242,240,228,0.84)" font-size="13">set by <tspan fill="#E8C34A" font-weight="700">Senegal</tspan> (Group I)</text>
<text class="disp" x="80" y="644" fill="#F2F0E4" font-size="16" font-weight="600" letter-spacing="2">WHERE THE CUT-OFF LANDS</text>
<line x1="315" y1="639" x2="1000" y2="639" stroke="rgba(242,240,228,0.22)" stroke-width="2"/>
<path d="M 110.0 854 L 110.0 854.0 C 130.5 853.0 191.9 850.8 232.9 848.0 C 273.8 845.2 314.8 863.4 355.7 837.4 C 396.7 811.4 437.6 706.6 478.6 692.0 C 519.5 677.4 560.5 722.9 601.4 749.9 C 642.4 776.9 683.3 839.8 724.3 854.0 C 765.2 868.2 806.2 835.1 847.1 835.1 C 888.1 835.1 949.5 850.9 970.0 854.0 L 970.0 854 Z" fill="#7FDCEF" fill-opacity="0.16"/>
<path d="M 110.0 854.0 C 130.5 853.0 191.9 850.8 232.9 848.0 C 273.8 845.2 314.8 863.4 355.7 837.4 C 396.7 811.4 437.6 706.6 478.6 692.0 C 519.5 677.4 560.5 722.9 601.4 749.9 C 642.4 776.9 683.3 839.8 724.3 854.0 C 765.2 868.2 806.2 835.1 847.1 835.1 C 888.1 835.1 949.5 850.9 970.0 854.0" fill="none" stroke="#7FDCEF" stroke-width="2.5"/>
<line x1="110" y1="854" x2="970" y2="854" stroke="rgba(242,240,228,0.22)" stroke-width="1"/>
<circle cx="232.9" cy="848.0" r="3.5" fill="#7FDCEF"/>
<text class="disp" x="232.9" y="836.0" fill="#F2F0E4" font-size="14" font-weight="700" text-anchor="middle">2%</text>
<text class="disp" x="232.9" y="876.0" fill="rgba(242,240,228,0.84)" font-size="15" font-weight="600" text-anchor="middle">−3</text>
<circle cx="355.7" cy="837.4" r="3.5" fill="#7FDCEF"/>
<text class="disp" x="355.7" y="825.4" fill="#F2F0E4" font-size="14" font-weight="700" text-anchor="middle">5%</text>
<text class="disp" x="355.7" y="876.0" fill="rgba(242,240,228,0.84)" font-size="15" font-weight="600" text-anchor="middle">−2</text>
<circle cx="478.6" cy="692.0" r="3.5" fill="#7FDCEF"/>
<text class="disp" x="478.6" y="680.0" fill="#F2F0E4" font-size="14" font-weight="700" text-anchor="middle">53%</text>
<text class="disp" x="478.6" y="876.0" fill="rgba(242,240,228,0.84)" font-size="15" font-weight="600" text-anchor="middle">−1</text>
<circle cx="601.4" cy="749.9" r="3.5" fill="#7FDCEF"/>
<text class="disp" x="601.4" y="737.9" fill="#F2F0E4" font-size="14" font-weight="700" text-anchor="middle">34%</text>
<text class="disp" x="601.4" y="876.0" fill="rgba(242,240,228,0.84)" font-size="15" font-weight="600" text-anchor="middle">0</text>
<circle cx="724.3" cy="854.0" r="3.5" fill="#7FDCEF"/>
<text class="disp" x="724.3" y="842.0" fill="#F2F0E4" font-size="14" font-weight="700" text-anchor="middle">0%</text>
<text class="disp" x="724.3" y="876.0" fill="rgba(242,240,228,0.84)" font-size="15" font-weight="600" text-anchor="middle">+1</text>
<circle cx="847.1" cy="835.1" r="3.5" fill="#7FDCEF"/>
<text class="disp" x="847.1" y="823.1" fill="#F2F0E4" font-size="14" font-weight="700" text-anchor="middle">6%</text>
<text class="disp" x="847.1" y="876.0" fill="rgba(242,240,228,0.84)" font-size="15" font-weight="600" text-anchor="middle">+2</text>
<text class="body" x="540" y="898" fill="rgba(242,240,228,0.68)" font-size="12.5" text-anchor="middle">Goal difference of the last qualifying third across every simulated finish (it is 3 points in every run).</text>
<line x1="232.9" y1="854" x2="232.9" y2="674" stroke="#5FD083" stroke-width="1.5" stroke-dasharray="4 4" opacity="0.85"/>
<text class="disp" x="232.9" y="666" fill="#5FD083" font-size="11" font-weight="600" letter-spacing="1" text-anchor="middle">LOWEST</text>
<line x1="847.1" y1="854" x2="847.1" y2="674" stroke="#FF6B57" stroke-width="1.5" stroke-dasharray="4 4" opacity="0.85"/>
<text class="disp" x="847.1" y="666" fill="#FF6B57" font-size="11" font-weight="600" letter-spacing="1" text-anchor="middle">HIGHEST</text>
<text class="disp" x="80" y="940" fill="#F2F0E4" font-size="16" font-weight="600" letter-spacing="2">THE RACE FOR THE LAST SPOTS</text>
<line x1="353" y1="935" x2="1000" y2="935" stroke="rgba(242,240,228,0.22)" stroke-width="2"/>
<rect x="72" y="952" width="936" height="588" rx="8" fill="rgba(10,38,18,0.55)" stroke="rgba(242,240,228,0.22)" stroke-width="1"/>
<text class="disp" x="132" y="970" fill="rgba(242,240,228,0.84)" font-size="11.5" font-weight="600" letter-spacing="2" text-anchor="start">TEAM</text>
<text class="disp" x="372" y="970" fill="rgba(242,240,228,0.84)" font-size="11.5" font-weight="600" letter-spacing="2" text-anchor="middle">PL</text>
<text class="disp" x="430" y="970" fill="rgba(242,240,228,0.84)" font-size="11.5" font-weight="600" letter-spacing="2" text-anchor="middle">PTS</text>
<text class="disp" x="486" y="970" fill="rgba(242,240,228,0.84)" font-size="11.5" font-weight="600" letter-spacing="2" text-anchor="middle">GD</text>
<text class="disp" x="542" y="970" fill="rgba(242,240,228,0.84)" font-size="11.5" font-weight="600" letter-spacing="2" text-anchor="middle">GF</text>
<text class="disp" x="600" y="970" fill="rgba(242,240,228,0.84)" font-size="11.5" font-weight="600" letter-spacing="2">CHANCE TO QUALIFY&#160;&#160;(share of simulations)</text>
<text class="body" x="132" y="1000.0" fill="#F2F0E4" font-size="19.5" font-weight="600">Sweden</text>
<text class="disp" x="372" y="1000.0" fill="rgba(242,240,228,0.84)" font-size="18" text-anchor="middle">3</text>
<text class="disp" x="430" y="1000.0" fill="#F2F0E4" font-size="20" font-weight="700" text-anchor="middle">4</text>
<text class="disp" x="486" y="1000.0" fill="rgba(242,240,228,0.84)" font-size="20" font-weight="700" text-anchor="middle">0</text>
<text class="disp" x="542" y="1000.0" fill="#F2F0E4" font-size="20" text-anchor="middle">7</text>
<rect x="600" y="986" width="340" height="16" rx="8" fill="rgba(242,240,228,0.10)"/>
<rect x="600" y="986" width="340.0" height="16" rx="8" fill="#E8C34A"/>
<text class="disp" x="1000" y="1000.0" fill="#F2F0E4" font-size="17" font-weight="700" text-anchor="end">100%</text>
<rect x="80" y="1014" width="920" height="40" fill="rgba(242,240,228,0.05)"/>
<text class="body" x="132" y="1040.0" fill="#F2F0E4" font-size="19.5" font-weight="600">Ecuador</text>
<text class="disp" x="372" y="1040.0" fill="rgba(242,240,228,0.84)" font-size="18" text-anchor="middle">3</text>
<text class="disp" x="430" y="1040.0" fill="#F2F0E4" font-size="20" font-weight="700" text-anchor="middle">4</text>
<text class="disp" x="486" y="1040.0" fill="rgba(242,240,228,0.84)" font-size="20" font-weight="700" text-anchor="middle">0</text>
<text class="disp" x="542" y="1040.0" fill="#F2F0E4" font-size="20" text-anchor="middle">2</text>
<rect x="600" y="1026" width="340" height="16" rx="8" fill="rgba(242,240,228,0.10)"/>
<rect x="600" y="1026" width="340.0" height="16" rx="8" fill="#E8C34A"/>
<text class="disp" x="1000" y="1040.0" fill="#F2F0E4" font-size="17" font-weight="700" text-anchor="end">100%</text>
<text class="body" x="132" y="1080.0" fill="#F2F0E4" font-size="19.5" font-weight="600">Bosnia and Herzegovina</text>
<text class="disp" x="372" y="1080.0" fill="rgba(242,240,228,0.84)" font-size="18" text-anchor="middle">3</text>
<text class="disp" x="430" y="1080.0" fill="#F2F0E4" font-size="20" font-weight="700" text-anchor="middle">4</text>
<text class="disp" x="486" y="1080.0" fill="#FF6B57" font-size="20" font-weight="700" text-anchor="middle">−1</text>
<text class="disp" x="542" y="1080.0" fill="#F2F0E4" font-size="20" text-anchor="middle">5</text>
<rect x="600" y="1066" width="340" height="16" rx="8" fill="rgba(242,240,228,0.10)"/>
<rect x="600" y="1066" width="340.0" height="16" rx="8" fill="#E8C34A"/>
<text class="disp" x="1000" y="1080.0" fill="#F2F0E4" font-size="17" font-weight="700" text-anchor="end">100%</text>
<rect x="80" y="1094" width="920" height="40" fill="rgba(242,240,228,0.05)"/>
<text class="body" x="132" y="1120.0" fill="#F2F0E4" font-size="19.5" font-weight="600">Paraguay</text>
<text class="disp" x="372" y="1120.0" fill="rgba(242,240,228,0.84)" font-size="18" text-anchor="middle">3</text>
<text class="disp" x="430" y="1120.0" fill="#F2F0E4" font-size="20" font-weight="700" text-anchor="middle">4</text>
<text class="disp" x="486" y="1120.0" fill="#FF6B57" font-size="20" font-weight="700" text-anchor="middle">−2</text>
<text class="disp" x="542" y="1120.0" fill="#F2F0E4" font-size="20" text-anchor="middle">2</text>
<rect x="600" y="1106" width="340" height="16" rx="8" fill="rgba(242,240,228,0.10)"/>
<rect x="600" y="1106" width="340.0" height="16" rx="8" fill="#E8C34A"/>
<text class="disp" x="1000" y="1120.0" fill="#F2F0E4" font-size="17" font-weight="700" text-anchor="end">100%</text>
<text class="body" x="132" y="1160.0" fill="#F2F0E4" font-size="19.5" font-weight="600">Senegal</text>
<text class="disp" x="372" y="1160.0" fill="rgba(242,240,228,0.84)" font-size="18" text-anchor="middle">3</text>
<text class="disp" x="430" y="1160.0" fill="#F2F0E4" font-size="20" font-weight="700" text-anchor="middle">3</text>
<text class="disp" x="486" y="1160.0" fill="#5FD083" font-size="20" font-weight="700" text-anchor="middle">+2</text>
<text class="disp" x="542" y="1160.0" fill="#F2F0E4" font-size="20" text-anchor="middle">8</text>
<rect x="600" y="1146" width="340" height="16" rx="8" fill="rgba(242,240,228,0.10)"/>
<rect x="600" y="1146" width="340.0" height="16" rx="8" fill="#E8C34A"/>
<text class="disp" x="1000" y="1160.0" fill="#F2F0E4" font-size="17" font-weight="700" text-anchor="end">100%</text>
<rect x="80" y="1174" width="920" height="40" fill="rgba(242,240,228,0.05)"/>
<text class="body" x="132" y="1200.0" fill="#F2F0E4" font-size="19.5" font-weight="600">Iran</text>
<text class="disp" x="372" y="1200.0" fill="rgba(242,240,228,0.84)" font-size="18" text-anchor="middle">3</text>
<text class="disp" x="430" y="1200.0" fill="#F2F0E4" font-size="20" font-weight="700" text-anchor="middle">3</text>
<text class="disp" x="486" y="1200.0" fill="rgba(242,240,228,0.84)" font-size="20" font-weight="700" text-anchor="middle">0</text>
<text class="disp" x="542" y="1200.0" fill="#F2F0E4" font-size="20" text-anchor="middle">3</text>
<rect x="600" y="1186" width="340" height="16" rx="8" fill="rgba(242,240,228,0.10)"/>
<rect x="600" y="1186" width="319.1" height="16" rx="8" fill="#7FDCEF"/>
<text class="disp" x="1000" y="1200.0" fill="#F2F0E4" font-size="17" font-weight="700" text-anchor="end">94%</text>
<text class="body" x="132" y="1240.0" fill="#F2F0E4" font-size="19.5" font-weight="600">Croatia</text>
<text class="disp" x="372" y="1240.0" fill="rgba(242,240,228,0.84)" font-size="18" text-anchor="middle">2</text>
<text class="disp" x="430" y="1240.0" fill="#F2F0E4" font-size="20" font-weight="700" text-anchor="middle">3</text>
<text class="disp" x="486" y="1240.0" fill="#FF6B57" font-size="20" font-weight="700" text-anchor="middle">−1</text>
<text class="disp" x="542" y="1240.0" fill="#F2F0E4" font-size="20" text-anchor="middle">3</text>
<rect x="600" y="1226" width="340" height="16" rx="8" fill="rgba(242,240,228,0.10)"/>
<rect x="600" y="1226" width="297.4" height="16" rx="8" fill="#7FDCEF"/>
<text class="disp" x="1000" y="1240.0" fill="#F2F0E4" font-size="17" font-weight="700" text-anchor="end">87%</text>
<rect x="80" y="1254" width="920" height="40" fill="rgba(242,240,228,0.05)"/>
<text class="body" x="132" y="1280.0" fill="#F2F0E4" font-size="19.5" font-weight="600">Austria</text>
<text class="disp" x="372" y="1280.0" fill="rgba(242,240,228,0.84)" font-size="18" text-anchor="middle">2</text>
<text class="disp" x="430" y="1280.0" fill="#F2F0E4" font-size="20" font-weight="700" text-anchor="middle">3</text>
<text class="disp" x="486" y="1280.0" fill="rgba(242,240,228,0.84)" font-size="20" font-weight="700" text-anchor="middle">0</text>
<text class="disp" x="542" y="1280.0" fill="#F2F0E4" font-size="20" text-anchor="middle">3</text>
<rect x="600" y="1266" width="340" height="16" rx="8" fill="rgba(242,240,228,0.10)"/>
<rect x="600" y="1266" width="282.7" height="16" rx="8" fill="#7FDCEF"/>
<text class="disp" x="1000" y="1280.0" fill="#F2F0E4" font-size="17" font-weight="700" text-anchor="end">83%</text>
<text class="body" x="132" y="1362.0" fill="#F2F0E4" font-size="19.5" font-weight="600">Algeria</text>
<text class="disp" x="372" y="1362.0" fill="rgba(242,240,228,0.84)" font-size="18" text-anchor="middle">2</text>
<text class="disp" x="430" y="1362.0" fill="#F2F0E4" font-size="20" font-weight="700" text-anchor="middle">3</text>
<text class="disp" x="486" y="1362.0" fill="#FF6B57" font-size="20" font-weight="700" text-anchor="middle">−2</text>
<text class="disp" x="542" y="1362.0" fill="#F2F0E4" font-size="20" text-anchor="middle">2</text>
<rect x="600" y="1348" width="340" height="16" rx="8" fill="rgba(242,240,228,0.10)"/>
<rect x="600" y="1348" width="197.9" height="16" rx="8" fill="#7FDCEF"/>
<text class="disp" x="1000" y="1362.0" fill="#F2F0E4" font-size="17" font-weight="700" text-anchor="end">58%</text>
<rect x="80" y="1376" width="920" height="40" fill="rgba(242,240,228,0.05)"/>
<text class="body" x="132" y="1402.0" fill="#F2F0E4" font-size="19.5" font-weight="600">South Korea</text>
<text class="disp" x="372" y="1402.0" fill="rgba(242,240,228,0.84)" font-size="18" text-anchor="middle">3</text>
<text class="disp" x="430" y="1402.0" fill="#F2F0E4" font-size="20" font-weight="700" text-anchor="middle">3</text>
<text class="disp" x="486" y="1402.0" fill="#FF6B57" font-size="20" font-weight="700" text-anchor="middle">−1</text>
<text class="disp" x="542" y="1402.0" fill="#F2F0E4" font-size="20" text-anchor="middle">2</text>
<rect x="600" y="1388" width="340" height="16" rx="8" fill="rgba(242,240,228,0.10)"/>
<rect x="600" y="1388" width="163.7" height="16" rx="8" fill="#7FDCEF"/>
<text class="disp" x="1000" y="1402.0" fill="#F2F0E4" font-size="17" font-weight="700" text-anchor="end">48%</text>
<text class="body" x="132" y="1442.0" fill="#F2F0E4" font-size="19.5" font-weight="600">DR Congo</text>
<text class="disp" x="372" y="1442.0" fill="rgba(242,240,228,0.84)" font-size="18" text-anchor="middle">2</text>
<text class="disp" x="430" y="1442.0" fill="#F2F0E4" font-size="20" font-weight="700" text-anchor="middle">1</text>
<text class="disp" x="486" y="1442.0" fill="#FF6B57" font-size="20" font-weight="700" text-anchor="middle">−1</text>
<text class="disp" x="542" y="1442.0" fill="#F2F0E4" font-size="20" text-anchor="middle">1</text>
<rect x="600" y="1428" width="340" height="16" rx="8" fill="rgba(242,240,228,0.10)"/>
<rect x="600" y="1428" width="97.7" height="16" rx="8" fill="#7FDCEF"/>
<text class="disp" x="1000" y="1442.0" fill="#F2F0E4" font-size="17" font-weight="700" text-anchor="end">29%</text>
<rect x="80" y="1456" width="920" height="40" fill="rgba(242,240,228,0.05)"/>
<text class="body" x="132" y="1482.0" fill="#F2F0E4" font-size="19.5" font-weight="600">Uzbekistan</text>
<text class="disp" x="372" y="1482.0" fill="rgba(242,240,228,0.84)" font-size="18" text-anchor="middle">2</text>
<text class="disp" x="430" y="1482.0" fill="#F2F0E4" font-size="20" font-weight="700" text-anchor="middle">0</text>
<text class="disp" x="486" y="1482.0" fill="#FF6B57" font-size="20" font-weight="700" text-anchor="middle">−7</text>
<text class="disp" x="542" y="1482.0" fill="#F2F0E4" font-size="20" text-anchor="middle">1</text>
<rect x="600" y="1468" width="340" height="16" rx="8" fill="rgba(242,240,228,0.10)"/>
<rect x="600" y="1468" width="2.0" height="16" rx="8" fill="#7FDCEF"/>
<text class="disp" x="1000" y="1482.0" fill="#F2F0E4" font-size="17" font-weight="700" text-anchor="end">&lt;1%</text>
<text class="body" x="132" y="1522.0" fill="#F2F0E4" font-size="19.5" font-weight="600">Scotland</text>
<text class="disp" x="372" y="1522.0" fill="rgba(242,240,228,0.84)" font-size="18" text-anchor="middle">3</text>
<text class="disp" x="430" y="1522.0" fill="#F2F0E4" font-size="20" font-weight="700" text-anchor="middle">3</text>
<text class="disp" x="486" y="1522.0" fill="#FF6B57" font-size="20" font-weight="700" text-anchor="middle">−3</text>
<text class="disp" x="542" y="1522.0" fill="#F2F0E4" font-size="20" text-anchor="middle">1</text>
<rect x="600" y="1508" width="340" height="16" rx="8" fill="rgba(242,240,228,0.10)"/>
<rect x="600" y="1508" width="2.0" height="16" rx="8" fill="#7FDCEF"/>
<text class="disp" x="1000" y="1522.0" fill="#F2F0E4" font-size="17" font-weight="700" text-anchor="end">&lt;1%</text>
<line x1="92" y1="1315.0" x2="988" y2="1315.0" stroke="#E8C34A" stroke-width="2" stroke-dasharray="6 5"/>
<rect x="464" y="1300" width="152" height="30" rx="15" fill="#E8C34A"/>
<text class="disp" x="540" y="1321" fill="#0E3014" font-size="14" font-weight="600" letter-spacing="2" text-anchor="middle">TOP 8 ADVANCE</text>
<text class="body" x="80" y="1578" fill="rgba(242,240,228,0.68)" font-size="12.5">Gold = already through as a top-eight third. Teal = on the bubble: chance to qualify across 1,000,000 simulated finishes, sorted most to least likely.</text>
<text class="body" x="80" y="1596" fill="rgba(242,240,228,0.68)" font-size="12.5">Rows above the gold line are the projected top eight. Eliminated sides are not shown.</text>
<rect x="80" y="1616" width="11" height="11" fill="#E8C34A"/>
<text class="body" x="100" y="1626" fill="#F2F0E4" font-size="15" font-weight="700">The bounds are exact; the chances and the curve are from the simulations.</text>
</svg>
